<mxfile host="app.diagrams.net" agent="Mozilla/5.0 (Windows NT 10.0; Win64; x64) AppleWebKit/537.36 (KHTML, like Gecko) Chrome/137.0.0.0 Safari/537.36" version="27.1.4">
  <diagram name="Page-1" id="ckRoIKW9Hp2y0EmTRZsL">
    <mxGraphModel dx="2590" dy="1358" grid="1" gridSize="10" guides="1" tooltips="1" connect="1" arrows="1" fold="1" page="1" pageScale="1" pageWidth="15000" pageHeight="15000" math="0" shadow="0">
      <root>
        <mxCell id="0" />
        <mxCell id="1" parent="0" />
        <mxCell id="HMphPLAKRJaJvp4kcy1O-10" value="" style="rounded=1;whiteSpace=wrap;html=1;rotation=90;fillColor=none;" vertex="1" parent="1">
          <mxGeometry x="922.5" y="632.5" width="115" height="80" as="geometry" />
        </mxCell>
        <mxCell id="HMphPLAKRJaJvp4kcy1O-9" value="" style="rounded=1;whiteSpace=wrap;html=1;rotation=90;fillColor=none;" vertex="1" parent="1">
          <mxGeometry x="631.25" y="638.75" width="117.5" height="80" as="geometry" />
        </mxCell>
        <mxCell id="HMphPLAKRJaJvp4kcy1O-1" value="Region" style="sketch=0;outlineConnect=0;gradientColor=none;html=1;whiteSpace=wrap;fontSize=12;fontStyle=0;shape=mxgraph.aws4.group;grIcon=mxgraph.aws4.group_region;strokeColor=#879196;fillColor=none;verticalAlign=top;align=left;spacingLeft=30;fontColor=#879196;dashed=1;" vertex="1" parent="1">
          <mxGeometry x="290" y="380" width="220" height="130" as="geometry" />
        </mxCell>
        <mxCell id="HMphPLAKRJaJvp4kcy1O-2" value="Amazon Cognito" style="sketch=0;outlineConnect=0;fontColor=#232F3E;gradientColor=none;strokeColor=#ffffff;fillColor=#232F3E;dashed=0;verticalLabelPosition=middle;verticalAlign=bottom;align=center;html=1;whiteSpace=wrap;fontSize=10;fontStyle=1;spacing=3;shape=mxgraph.aws4.productIcon;prIcon=mxgraph.aws4.cognito;" vertex="1" parent="1">
          <mxGeometry x="600" y="560" width="80" height="110" as="geometry" />
        </mxCell>
        <mxCell id="HMphPLAKRJaJvp4kcy1O-3" value="User" style="sketch=0;outlineConnect=0;fontColor=#232F3E;gradientColor=none;strokeColor=#232F3E;fillColor=#ffffff;dashed=0;verticalLabelPosition=bottom;verticalAlign=top;align=center;html=1;fontSize=12;fontStyle=0;aspect=fixed;shape=mxgraph.aws4.resourceIcon;resIcon=mxgraph.aws4.user;" vertex="1" parent="1">
          <mxGeometry x="360" y="560" width="60" height="60" as="geometry" />
        </mxCell>
        <mxCell id="HMphPLAKRJaJvp4kcy1O-4" value="Amazon API Gateway" style="sketch=0;outlineConnect=0;fontColor=#232F3E;gradientColor=none;strokeColor=#ffffff;fillColor=#232F3E;dashed=0;verticalLabelPosition=middle;verticalAlign=bottom;align=center;html=1;whiteSpace=wrap;fontSize=10;fontStyle=1;spacing=3;shape=mxgraph.aws4.productIcon;prIcon=mxgraph.aws4.api_gateway;" vertex="1" parent="1">
          <mxGeometry x="880" y="555" width="80" height="110" as="geometry" />
        </mxCell>
        <mxCell id="HMphPLAKRJaJvp4kcy1O-5" value="/upload" style="text;html=1;align=center;verticalAlign=middle;whiteSpace=wrap;rounded=0;" vertex="1" parent="1">
          <mxGeometry x="950" y="635" width="60" height="30" as="geometry" />
        </mxCell>
        <mxCell id="HMphPLAKRJaJvp4kcy1O-6" value="/retrieve" style="text;html=1;align=center;verticalAlign=middle;whiteSpace=wrap;rounded=0;" vertex="1" parent="1">
          <mxGeometry x="950" y="675" width="60" height="30" as="geometry" />
        </mxCell>
        <mxCell id="HMphPLAKRJaJvp4kcy1O-7" value="/login" style="text;html=1;align=center;verticalAlign=middle;whiteSpace=wrap;rounded=0;" vertex="1" parent="1">
          <mxGeometry x="660" y="640" width="60" height="30" as="geometry" />
        </mxCell>
        <mxCell id="HMphPLAKRJaJvp4kcy1O-8" value="/challange" style="text;html=1;align=center;verticalAlign=middle;whiteSpace=wrap;rounded=0;" vertex="1" parent="1">
          <mxGeometry x="660" y="680" width="60" height="30" as="geometry" />
        </mxCell>
        <mxCell id="HMphPLAKRJaJvp4kcy1O-11" value="" style="outlineConnect=0;dashed=0;verticalLabelPosition=bottom;verticalAlign=top;align=center;html=1;shape=mxgraph.aws3.lambda_function;fillColor=#F58534;gradientColor=none;" vertex="1" parent="1">
          <mxGeometry x="1150" y="555" width="69" height="72" as="geometry" />
        </mxCell>
        <mxCell id="HMphPLAKRJaJvp4kcy1O-12" value="upload function" style="text;html=1;align=center;verticalAlign=middle;whiteSpace=wrap;rounded=0;" vertex="1" parent="1">
          <mxGeometry x="1230" y="576" width="60" height="30" as="geometry" />
        </mxCell>
        <mxCell id="HMphPLAKRJaJvp4kcy1O-13" value="Amazon S3" style="sketch=0;outlineConnect=0;fontColor=#232F3E;gradientColor=none;strokeColor=#ffffff;fillColor=#232F3E;dashed=0;verticalLabelPosition=middle;verticalAlign=bottom;align=center;html=1;whiteSpace=wrap;fontSize=10;fontStyle=1;spacing=3;shape=mxgraph.aws4.productIcon;prIcon=mxgraph.aws4.s3;" vertex="1" parent="1">
          <mxGeometry x="1440" y="560" width="80" height="100" as="geometry" />
        </mxCell>
        <mxCell id="HMphPLAKRJaJvp4kcy1O-14" value="upload bucker" style="text;html=1;align=center;verticalAlign=middle;whiteSpace=wrap;rounded=0;" vertex="1" parent="1">
          <mxGeometry x="1530" y="576" width="80" height="44" as="geometry" />
        </mxCell>
        <mxCell id="HMphPLAKRJaJvp4kcy1O-15" value="Amazon SQS" style="sketch=0;outlineConnect=0;fontColor=#232F3E;gradientColor=none;strokeColor=#ffffff;fillColor=#232F3E;dashed=0;verticalLabelPosition=middle;verticalAlign=bottom;align=center;html=1;whiteSpace=wrap;fontSize=10;fontStyle=1;spacing=3;shape=mxgraph.aws4.productIcon;prIcon=mxgraph.aws4.sqs;" vertex="1" parent="1">
          <mxGeometry x="1717.5" y="900" width="80" height="100" as="geometry" />
        </mxCell>
        <mxCell id="HMphPLAKRJaJvp4kcy1O-16" value="" style="outlineConnect=0;dashed=0;verticalLabelPosition=bottom;verticalAlign=top;align=center;html=1;shape=mxgraph.aws3.lambda_function;fillColor=#F58534;gradientColor=none;" vertex="1" parent="1">
          <mxGeometry x="1448.5" y="914" width="69" height="72" as="geometry" />
        </mxCell>
        <mxCell id="HMphPLAKRJaJvp4kcy1O-17" value="handler function" style="text;html=1;align=center;verticalAlign=middle;whiteSpace=wrap;rounded=0;" vertex="1" parent="1">
          <mxGeometry x="1517.5" y="935" width="60" height="30" as="geometry" />
        </mxCell>
        <mxCell id="HMphPLAKRJaJvp4kcy1O-18" value="Amazon Rekognition" style="sketch=0;outlineConnect=0;fontColor=#232F3E;gradientColor=none;strokeColor=#ffffff;fillColor=#232F3E;dashed=0;verticalLabelPosition=middle;verticalAlign=bottom;align=center;html=1;whiteSpace=wrap;fontSize=10;fontStyle=1;spacing=3;shape=mxgraph.aws4.productIcon;prIcon=mxgraph.aws4.rekognition;" vertex="1" parent="1">
          <mxGeometry x="1207.5" y="909" width="80" height="110" as="geometry" />
        </mxCell>
        <mxCell id="HMphPLAKRJaJvp4kcy1O-19" value="Amazon DynamoDB" style="sketch=0;outlineConnect=0;fontColor=#232F3E;gradientColor=none;strokeColor=#ffffff;fillColor=#232F3E;dashed=0;verticalLabelPosition=middle;verticalAlign=bottom;align=center;html=1;whiteSpace=wrap;fontSize=10;fontStyle=1;spacing=3;shape=mxgraph.aws4.productIcon;prIcon=mxgraph.aws4.dynamodb;" vertex="1" parent="1">
          <mxGeometry x="1443" y="1180" width="80" height="110" as="geometry" />
        </mxCell>
        <mxCell id="HMphPLAKRJaJvp4kcy1O-20" value="" style="outlineConnect=0;dashed=0;verticalLabelPosition=bottom;verticalAlign=top;align=center;html=1;shape=mxgraph.aws3.lambda_function;fillColor=#F58534;gradientColor=none;" vertex="1" parent="1">
          <mxGeometry x="1200" y="1199" width="69" height="72" as="geometry" />
        </mxCell>
        <mxCell id="HMphPLAKRJaJvp4kcy1O-21" value="" style="endArrow=classic;html=1;rounded=0;" edge="1" parent="1" source="HMphPLAKRJaJvp4kcy1O-3">
          <mxGeometry width="50" height="50" relative="1" as="geometry">
            <mxPoint x="1090" y="920" as="sourcePoint" />
            <mxPoint x="590" y="590" as="targetPoint" />
          </mxGeometry>
        </mxCell>
        <mxCell id="HMphPLAKRJaJvp4kcy1O-22" value="" style="endArrow=classic;html=1;rounded=0;" edge="1" parent="1">
          <mxGeometry width="50" height="50" relative="1" as="geometry">
            <mxPoint x="680" y="589.29" as="sourcePoint" />
            <mxPoint x="870" y="589" as="targetPoint" />
          </mxGeometry>
        </mxCell>
        <mxCell id="HMphPLAKRJaJvp4kcy1O-23" value="" style="endArrow=classic;html=1;rounded=0;" edge="1" parent="1">
          <mxGeometry width="50" height="50" relative="1" as="geometry">
            <mxPoint x="970" y="589.29" as="sourcePoint" />
            <mxPoint x="1140" y="589.29" as="targetPoint" />
          </mxGeometry>
        </mxCell>
        <mxCell id="HMphPLAKRJaJvp4kcy1O-24" value="" style="endArrow=classic;html=1;rounded=0;" edge="1" parent="1">
          <mxGeometry width="50" height="50" relative="1" as="geometry">
            <mxPoint x="1290" y="589.29" as="sourcePoint" />
            <mxPoint x="1429" y="589.5799999999999" as="targetPoint" />
          </mxGeometry>
        </mxCell>
        <mxCell id="HMphPLAKRJaJvp4kcy1O-25" value="" style="endArrow=classic;html=1;rounded=0;" edge="1" parent="1">
          <mxGeometry width="50" height="50" relative="1" as="geometry">
            <mxPoint x="1640" y="600" as="sourcePoint" />
            <mxPoint x="1750" y="880" as="targetPoint" />
            <Array as="points">
              <mxPoint x="1750" y="600" />
            </Array>
          </mxGeometry>
        </mxCell>
        <mxCell id="HMphPLAKRJaJvp4kcy1O-26" value="" style="endArrow=classic;html=1;rounded=0;" edge="1" parent="1">
          <mxGeometry width="50" height="50" relative="1" as="geometry">
            <mxPoint x="1710" y="950" as="sourcePoint" />
            <mxPoint x="1600" y="950" as="targetPoint" />
          </mxGeometry>
        </mxCell>
        <mxCell id="HMphPLAKRJaJvp4kcy1O-27" value="" style="endArrow=classic;html=1;rounded=0;" edge="1" parent="1">
          <mxGeometry width="50" height="50" relative="1" as="geometry">
            <mxPoint x="1430" y="940" as="sourcePoint" />
            <mxPoint x="1320" y="940" as="targetPoint" />
          </mxGeometry>
        </mxCell>
        <mxCell id="HMphPLAKRJaJvp4kcy1O-28" value="" style="endArrow=classic;html=1;rounded=0;" edge="1" parent="1">
          <mxGeometry width="50" height="50" relative="1" as="geometry">
            <mxPoint x="1330" y="970" as="sourcePoint" />
            <mxPoint x="1430" y="970" as="targetPoint" />
          </mxGeometry>
        </mxCell>
        <mxCell id="HMphPLAKRJaJvp4kcy1O-29" value="" style="endArrow=classic;html=1;rounded=0;" edge="1" parent="1">
          <mxGeometry width="50" height="50" relative="1" as="geometry">
            <mxPoint x="1480" y="1000" as="sourcePoint" />
            <mxPoint x="1480" y="1150" as="targetPoint" />
          </mxGeometry>
        </mxCell>
        <mxCell id="HMphPLAKRJaJvp4kcy1O-30" value="" style="endArrow=classic;html=1;rounded=0;" edge="1" parent="1">
          <mxGeometry width="50" height="50" relative="1" as="geometry">
            <mxPoint x="1410" y="1234.29" as="sourcePoint" />
            <mxPoint x="1300" y="1234.29" as="targetPoint" />
          </mxGeometry>
        </mxCell>
      </root>
    </mxGraphModel>
  </diagram>
</mxfile>
